<?xml version="1.0" encoding="utf-8"?>
<svg width="76.5px" height="64px" viewBox="0 0 76.5 64" version="1.1" xmlns:xlink="http://www.w3.org/1999/xlink" xmlns="http://www.w3.org/2000/svg">
  <path d="M0 0L76.5 0L76.5 64L0 64L0 0Z" id="background" fill="none" fill-rule="evenodd" stroke="none" />
  <path d="M26.25 14.125L70.25 14.125L50.25 49.875L6.25 49.875L26.25 14.125ZM19.1 26.8823L22.078 26.8823L22.078 35.0116Q23.086 33.8372 24.4868 33.2195Q25.8877 32.6018 27.5277 32.6018Q30.9444 32.6018 33.0712 34.699Q35.1981 36.7961 35.1981 40.8837Q35.1981 44.7577 33.0969 47.32Q30.9957 49.8823 27.2716 49.8823Q25.1876 49.8823 23.7526 48.9825C23.1832 48.6266 22.574 48.0572 21.9248 47.2742L21.925 49.875L19.125 49.875L19.1 26.8823ZM50.7772 33.8982C49.4896 33.0034 47.8191 32.5561 45.7657 32.5561Q42.1581 32.5561 39.8267 34.9506Q37.4954 37.3452 37.4954 41.6462Q37.4954 45.1542 39.6225 47.4954Q41.7496 49.8366 45.3232 49.8366C47.4447 49.8366 49.1861 49.3358 50.5475 48.3342C51.9088 47.3327 52.7596 45.749 53.1 43.5833L50.122 43.5833C49.8384 44.7885 49.3251 45.738 48.582 46.4318Q47.4673 47.4725 45.5615 47.4725C43.9052 47.4725 42.6913 46.9139 41.9198 45.7968C41.1484 44.6797 40.7627 43.3036 40.7627 41.6687Q40.7627 39.2312 41.5795 37.5709Q42.8387 35.0116 45.7657 35.0116C47.1951 35.0116 48.2331 35.3446 48.8798 36.0106C49.5264 36.6766 49.9405 37.513 50.122 38.5196L53.1 38.5196C52.8391 36.3335 52.0648 34.793 50.7772 33.8982ZM27.0812 47.4573C28.7432 47.4573 29.9868 46.8675 30.8121 45.688C31.6373 44.5085 32.05 42.9528 32.05 41.0209Q32.05 38.4433 30.8121 36.7504Q29.5742 35.0574 27.1666 35.0574Q25.0666 35.0574 23.4872 36.4453Q21.9078 37.8333 21.9078 41.0209Q21.9078 43.324 22.5566 44.7577Q23.7688 47.4573 27.0812 47.4573Z" id="bandcamp" fill="#FFFFFF" fill-rule="evenodd" stroke="none" />
</svg>