<?xml version="1.0" encoding="utf-8"?>
<svg width="64px" height="64px" viewBox="0 0 64 64" version="1.1" xmlns:xlink="http://www.w3.org/1999/xlink" xmlns="http://www.w3.org/2000/svg">
  <path d="M0 0L64 0L64 64L0 64L0 0Z" id="background" fill="none" fill-rule="evenodd" stroke="none" />
  <path d="M20.7499 8.25L43.2501 8.25C46.7019 8.25 49.6481 9.47038 52.0889 11.9111C54.5296 14.3519 55.75 17.2981 55.75 20.7499L55.75 43.2501C55.75 46.7019 54.5296 49.6481 52.0889 52.0889C49.6481 54.5296 46.7019 55.75 43.2501 55.75L20.7499 55.75C17.2981 55.75 14.3519 54.5296 11.9111 52.0889C9.47038 49.6481 8.25 46.7019 8.25 43.2501L8.25 20.7499C8.25 17.2981 9.47038 14.3519 11.9111 11.9111C14.3519 9.47038 17.2981 8.25 20.7499 8.25L20.7499 8.25ZM20.5978 13.25C18.5688 13.25 16.8369 13.9674 15.4021 15.4021C13.9674 16.8369 13.25 18.5688 13.25 20.5978L13.25 43.4022C13.25 45.4312 13.9674 47.1631 15.4021 48.5979C16.8369 50.0326 18.5688 50.75 20.5978 50.75L43.4022 50.75C45.4312 50.75 47.1631 50.0326 48.5979 48.5979C50.0326 47.1631 50.75 45.4312 50.75 43.4022L50.75 20.5978C50.75 18.5688 50.0326 16.8369 48.5979 15.4021C47.1631 13.9674 45.4312 13.25 43.4022 13.25L20.5978 13.25L20.5978 13.25ZM20.75 32C20.75 25.7868 25.7868 20.75 32 20.75C38.2132 20.75 43.25 25.7868 43.25 32C43.25 38.2132 38.2132 43.25 32 43.25C25.7868 43.25 20.75 38.2132 20.75 32L20.75 32ZM25.75 32C25.75 33.7259 26.3602 35.199 27.5806 36.4194C28.801 37.6398 30.2741 38.25 32 38.25C33.7259 38.25 35.199 37.6398 36.4194 36.4194C37.6398 35.199 38.25 33.7259 38.25 32C38.25 30.2741 37.6398 28.801 36.4194 27.5806C35.199 26.3602 33.7259 25.75 32 25.75C30.2741 25.75 28.801 26.3602 27.5806 27.5806C26.3602 28.801 25.75 30.2741 25.75 32L25.75 32ZM41 20C41 18.3431 42.3431 17 44 17C45.6569 17 47 18.3431 47 20C47 21.6569 45.6569 23 44 23C42.3431 23 41 21.6569 41 20L41 20Z" id="instagram" fill="#FFFFFF" fill-rule="evenodd" stroke="none" />
</svg>