<?xml version="1.0" encoding="utf-8"?>
<svg width="64px" height="64px" viewBox="0 0 64 64" version="1.1" xmlns:xlink="http://www.w3.org/1999/xlink" xmlns="http://www.w3.org/2000/svg">
  <path d="M0 0L64 0L64 64L0 64L0 0Z" id="background" fill="none" fill-rule="evenodd" stroke="none" />
  <path d="M32 7C18.1996 7 7 18.1996 7 32C7 45.8004 18.1996 57 32 57C45.8004 57 57 45.8004 57 32C57 18.1996 45.8004 7 32 7L32 7ZM42.1512 43.7843C41.7278 43.7843 41.4657 43.6532 41.0726 43.4214C34.7823 39.631 27.4637 39.4698 20.2359 40.9516C19.8428 41.0524 19.3286 41.2137 19.0363 41.2137C18.0585 41.2137 17.4436 40.4375 17.4436 39.621C17.4436 38.5827 18.0585 38.0887 18.8145 37.9274C27.0706 36.1028 35.5081 36.2641 42.7056 40.5685C43.3206 40.9617 43.6835 41.3145 43.6835 42.2319C43.6835 43.1492 42.9677 43.7843 42.1512 43.7843L42.1512 43.7843ZM44.8629 37.1714C44.3387 37.1714 43.9859 36.9395 43.623 36.748C37.3226 33.0182 27.9274 31.5161 19.5706 33.7843C19.0867 33.9153 18.8246 34.0464 18.371 34.0464C17.2923 34.0464 16.4153 33.1694 16.4153 32.0907C16.4153 31.0121 16.9395 30.2964 17.9778 30.004C20.7802 29.2177 23.6431 28.6331 27.8367 28.6331C34.379 28.6331 40.6996 30.256 45.6794 33.2198C46.496 33.7036 46.8186 34.3286 46.8186 35.2057C46.8085 36.2944 45.9617 37.1714 44.8629 37.1714L44.8629 37.1714ZM47.9879 29.4899C47.4637 29.4899 47.1411 29.3589 46.6875 29.0968C39.5101 24.8125 26.6774 23.7843 18.371 26.1028C18.0081 26.2036 17.5544 26.3649 17.0706 26.3649C15.7399 26.3649 14.7218 25.3266 14.7218 23.9859C14.7218 22.6149 15.5685 21.8387 16.4758 21.5766C20.0242 20.5383 23.996 20.0443 28.3206 20.0443C35.6794 20.0443 43.3911 21.5766 49.0262 24.8629C49.8125 25.3165 50.3266 25.9415 50.3266 27.1411C50.3266 28.5121 49.2177 29.4899 47.9879 29.4899L47.9879 29.4899Z" id="spotify" fill="#FFFFFF" fill-rule="evenodd" stroke="none" />
</svg>