<?xml version="1.0" encoding="utf-8"?>
<svg width="56px" height="64px" viewBox="0 0 56 64" version="1.1" xmlns:xlink="http://www.w3.org/1999/xlink" xmlns="http://www.w3.org/2000/svg">
  <path d="M0 0L56 0L56 64L0 64L0 0L0 0Z" id="background" fill="none" fill-rule="evenodd" stroke="none" />
  <path d="M38.5011 29.9654C38.7141 30.0554 38.9078 30.1554 39.1111 30.2454C41.9385 31.6551 44.0107 33.7646 45.0951 36.3841C46.6153 40.0333 46.7606 45.9621 42.1612 50.7011C38.656 54.3204 34.3859 55.95 28.3534 56L28.3244 56C21.527 55.95 16.3079 53.5905 12.793 48.9815C9.66546 44.8823 8.0581 39.1735 8 32.025L8 31.975C8.04842 24.8265 9.65578 19.1177 12.7833 15.0185C16.2982 10.4095 21.527 8.04999 28.3244 8L28.3534 8C35.1605 8.04999 40.4473 10.3995 44.0687 14.9885C45.8504 17.2581 47.1673 19.9875 48 23.1568L44.0881 24.2366C43.4006 21.6572 42.3646 19.4576 40.9702 17.698C38.1428 14.1187 33.9017 12.2791 28.3341 12.2391C22.8148 12.2891 18.6415 14.1187 15.9206 17.678C13.3837 21.0073 12.0668 25.8263 12.0184 31.995C12.0668 38.1637 13.3837 42.9827 15.9206 46.322C18.6318 49.8813 22.8148 51.7109 28.3341 51.7609C33.3111 51.7209 36.6032 50.5011 39.3435 47.6717C42.4711 44.4524 42.413 40.4932 41.4156 38.0837C40.825 36.664 39.7599 35.4843 38.3268 34.5945C37.9685 37.2839 37.1842 39.4235 35.9351 41.0731C34.2794 43.2527 31.9264 44.4324 28.8957 44.6024C26.6105 44.7323 24.4125 44.1625 22.7083 43.0027C20.6943 41.623 19.513 39.5234 19.3871 37.0739C19.145 32.2449 22.8439 28.7757 28.6052 28.4357C30.6483 28.3158 32.5655 28.4057 34.3374 28.7157C34.1051 27.236 33.6306 26.0562 32.9237 25.1964C31.9555 24.0267 30.4449 23.4268 28.4503 23.4168L28.3825 23.4168C26.7751 23.4168 24.6061 23.8767 23.2215 26.0462L19.8906 23.6867C21.7497 20.7773 24.7611 19.1777 28.3922 19.1777L28.4696 19.1777C34.5311 19.2177 38.1428 23.1269 38.5108 29.9454L38.4914 29.9654L38.5011 29.9654L38.5011 29.9654ZM23.3958 36.844C23.5217 39.3535 26.1457 40.5232 28.6826 40.3733C31.1615 40.2333 33.9695 39.2335 34.444 33.0548C33.1658 32.7649 31.7521 32.6149 30.2416 32.6149C29.7768 32.6149 29.312 32.6249 28.8472 32.6549C24.6933 32.8948 23.3086 34.9744 23.4055 36.834L23.3958 36.844L23.3958 36.844Z" id="@" fill="#FFFFFF" fill-rule="evenodd" stroke="none" />
</svg>