<?xml version="1.0" encoding="utf-8"?>
<svg width="64px" height="64px" viewBox="0 0 64 64" version="1.1" xmlns:xlink="http://www.w3.org/1999/xlink" xmlns="http://www.w3.org/2000/svg">
  <path d="M0 0L64 0L64 64L0 64L0 0Z" id="background" fill="none" fill-rule="evenodd" stroke="none" />
  <path d="M32 7C18.1996 7 7 18.1996 7 32C7 45.8004 18.1996 57 32 57C45.8004 57 57 45.8004 57 32C57 18.1996 45.8004 7 32 7ZM14.9268 32C14.9268 22.5708 22.5707 14.9268 32 14.9268C41.4292 14.9268 49.0732 22.5708 49.0732 32C49.0732 41.4293 41.4292 49.0732 32 49.0732C22.5707 49.0732 14.9268 41.4293 14.9268 32ZM18.5854 32C18.5854 24.5949 24.5949 18.5854 32 18.5854C39.4051 18.5854 45.4146 24.5949 45.4146 32C45.4146 39.4051 39.4051 45.4146 32 45.4146C24.5949 45.4146 18.5854 39.4051 18.5854 32ZM41.0244 32L26.3903 40.4146L26.3903 23.5854L41.0244 32Z" id="Circle-Union" fill="#FFFFFF" fill-rule="evenodd" stroke="none" />
</svg>