<?xml version="1.0" encoding="utf-8"?>
<svg width="76px" height="64px" viewBox="0 0 76 64" version="1.1" xmlns:xlink="http://www.w3.org/1999/xlink" xmlns="http://www.w3.org/2000/svg">
  <defs>
    <linearGradient gradientUnits="userSpaceOnUse" x1="32" y1="32" x2="32" y2="0" id="gradient_1">
      <stop offset="0%" stop-color="#FF3600" />
      <stop offset="78.395065%" stop-color="#FF7400" />
    </linearGradient>
  </defs>
  <path d="M0 0L76 0L76 64L0 64L0 0Z" id="background" fill="none" fill-rule="evenodd" stroke="none" />
  <path d="M61.992 30.9329L59.742 30.9329C59.856 30.2369 59.928 29.5308 59.928 28.8008C59.928 21.7304 54.382 16 47.54 16C43.828 16 40.52 17.7081 38.25 20.3843L38.25 48L61.992 48C66.55 48 70.25 44.1797 70.25 39.4635C70.25 34.7512 66.55 30.9329 61.992 30.9329L61.992 30.9329ZM30.25 48L34.25 48L34.25 23.9205C33.054 23.1744 31.7 22.6824 30.25 22.4924L30.25 48L30.25 48ZM22.25 48L26.25 48L26.25 22.8104C24.75 23.2345 23.398 24.0045 22.25 25.0166L22.25 48L22.25 48ZM14.25 30.9589L14.25 47.972L14.508 48L18.25 48L18.25 30.9329L14.508 30.9329L14.25 30.9589L14.25 30.9589ZM6.25 39.4635C6.25 42.5617 7.862 45.2478 10.25 46.7459L10.25 32.189C7.862 33.6851 6.25 36.3713 6.25 39.4635L6.25 39.4635Z" id="soundcloud" fill="url(#gradient_1)" fill-rule="evenodd" stroke="none" />
</svg>