<?xml version="1.0" encoding="utf-8"?>
<svg width="52px" height="64px" viewBox="0 0 52 64" version="1.1" xmlns:xlink="http://www.w3.org/1999/xlink" xmlns="http://www.w3.org/2000/svg">
  <path d="M0 0L52 0L52 64L0 64L0 0Z" id="background" fill="none" fill-rule="evenodd" stroke="none" />
  <path d="M9.88916 35.0761C7.04938 40.3394 7.68454 46.7885 11.4587 51.3886C10.1766 50.6136 8.99991 49.6331 7.98041 48.4603C3.96637 43.8427 3.23254 37.2133 6.13916 31.8261C9.04578 26.439 14.9826 23.425 21.0356 24.2637L21.0377 27.4786C16.3867 28.0363 12.1892 30.8132 9.88916 35.0761L9.88916 35.0761ZM42.4601 19.7513C43.1792 20.2279 43.9482 20.6152 44.75 20.908L44.75 18.321C42.9285 18.3214 41.141 17.8663 39.5471 17.0038C40.3347 18.0793 41.3181 19.0137 42.4601 19.7513L42.4601 19.7513ZM17.3491 46.0565C17.1442 45.7766 16.9634 45.4848 16.8068 45.1838C18.1676 45.6596 19.6784 45.6972 21.1164 45.2251C23.8803 44.3178 25.7495 41.7328 25.7494 38.8178L25.7494 7.25L33.6825 7.25C33.677 7.92148 33.7331 8.59201 33.8502 9.25314C33.9293 9.67666 34.0326 10.0929 34.1589 10.5L29.4994 10.5L29.4994 42.0678C29.4995 44.9828 27.6303 47.5678 24.8664 48.4752C22.1024 49.3825 19.0697 48.4067 17.3491 46.0565L17.3491 46.0565Z" id="cyan" fill="#00F0F0" fill-rule="evenodd" stroke="none" />
  <path d="M21.0409 32.3864L21.0377 27.4786C22.2643 27.3315 23.5224 27.3387 24.7855 27.5137L24.7909 35.6364C22.0165 34.7617 18.9955 35.7732 17.3026 38.1436C15.8113 40.2316 15.6483 42.9576 16.8068 45.1838C15.5519 44.7452 14.4245 43.934 13.599 42.8065C11.8784 40.4563 11.8597 37.2639 13.5526 34.8936C15.2455 32.5232 18.2665 31.5117 21.0409 32.3864L21.0409 32.3864ZM44.75 26.2161C40.7812 26.2256 36.9097 24.9851 33.6825 22.6697L33.6825 38.8177C33.6825 44.9368 29.8907 50.4183 24.1684 52.5663C19.8994 54.1688 15.2245 53.6651 11.4587 51.3886C11.5475 51.4969 11.6381 51.6042 11.7304 51.7103C15.7444 56.328 22.196 57.9644 27.9184 55.8163C33.6407 53.6683 37.4325 48.1868 37.4325 42.0677L37.4325 25.9197C40.6597 28.2351 44.5312 29.4756 48.5 29.4661L48.5 21.571C47.2143 21.5713 45.9456 21.3447 44.75 20.908L44.75 26.2161L44.75 26.2161ZM38.71 16.5013C36.5263 15.0908 34.9222 12.9607 34.1588 10.5L37.4325 10.5C37.4269 11.1715 37.4831 11.842 37.6001 12.5031C37.9073 14.1476 38.5793 15.6823 39.5471 17.0038C39.2615 16.8493 38.9822 16.6817 38.71 16.5013L38.71 16.5013Z" id="red" fill="#FF004B" fill-rule="evenodd" stroke="none" />
</svg>