<?xml version="1.0" encoding="utf-8"?>
<svg width="52px" height="64px" viewBox="0 0 52 64" version="1.1" xmlns:xlink="http://www.w3.org/1999/xlink" xmlns="http://www.w3.org/2000/svg">
  <path d="M0 0L52 0L52 64L0 64L0 0Z" id="background" fill="none" fill-rule="evenodd" stroke="none" />
  <path d="M46.625 27.8411C42.6562 27.8506 38.7847 26.6101 35.5575 24.2947L35.5575 40.4427C35.5575 46.5618 31.7657 52.0433 26.0434 54.1913C20.321 56.3394 13.8694 54.703 9.85541 50.0853C5.84137 45.4677 5.10754 38.8383 8.01416 33.4511C10.9208 28.064 16.8576 25.05 22.9106 25.8887L22.9159 34.0114C20.1415 33.1367 17.1205 34.1482 15.4276 36.5186C13.7347 38.8889 13.7534 42.0813 15.4741 44.4315C17.1947 46.7817 20.2274 47.7575 22.9914 46.8502C25.7553 45.9428 27.6245 43.3578 27.6244 40.4428L27.6244 8.875L35.5575 8.875C35.5519 9.5465 35.6081 10.217 35.7252 10.8782L35.7251 10.8781C36.2823 13.861 38.0399 16.4824 40.5851 18.1263C42.3766 19.3136 44.4772 19.9465 46.625 19.946L46.625 27.8411Z" id="tiktok" fill="#FFFFFF" fill-rule="evenodd" stroke="none" />
</svg>