<?xml version="1.0" encoding="utf-8"?>
<svg width="16" height="16" viewBox="0 0 16 16" fill="none" stroke="none" version="1.1" xmlns:xlink="http://www.w3.org/1999/xlink" xmlns="http://www.w3.org/2000/svg">
  <defs>
    <path id="path_1" d="M16 0L16 0L16 16L0 16L0 0L16 0Z" />
    <rect id="rect_2" x="0" y="0" width="16" height="16" />
    <clipPath id="clip_path_3">
      <use xlink:href="#rect_2" />
    </clipPath>
  </defs>
  <g id="favicon" opacity="1" clip-path="url(#clip_path_3)">
    <g>
      <use xlink:href="#path_1" style="mix-blend-mode:normal;" />
      <g>
        <rect id="contour" width="16" height="16" style="fill:#FFFFFF;fill-rule:evenodd;fill-opacity:0.6;mix-blend-mode:normal;" />
        <rect id="black" width="14" height="14" style="fill:#000000;fill-rule:evenodd;mix-blend-mode:normal;" transform="translate(1 1)" />
        <path id="keyD" d="M1 0L3 0L3 7L4 7L4 12L0 12L0 7L1 7L1 0L1 0Z" style="fill:#FFFFFF;fill-rule:evenodd;mix-blend-mode:normal;" transform="translate(6 2)" />
        <path id="keyE" d="M1 0L3 0L3 12L0 12L0 7L1 7L1 0L1 0Z" style="fill:#FFFFFF;fill-rule:evenodd;mix-blend-mode:normal;" transform="translate(11 2)" />
        <path id="keyC" d="M0 0L2 0L2 7L3 7L3 12L0 12L0 0L0 0Z" style="fill:#FFFFFF;fill-rule:evenodd;mix-blend-mode:normal;" transform="translate(2 2)" />
      </g>
    </g>
  </g>
</svg>